<svg id="Layer_1" enable-background="new 0 0 512 512" viewBox="0 0 512 512" xmlns="http://www.w3.org/2000/svg" xmlns:xlink="http://www.w3.org/1999/xlink"><linearGradient id="SVGID_1_" gradientUnits="userSpaceOnUse" x1="86.686" x2="414.807" y1="437.042" y2="108.921"><stop offset="0" stop-color="#fc4422"/><stop offset="1" stop-color="#ffbb32"/></linearGradient><path d="m419.672 369.952c1.224 1.817 1.153 4.298-.353 6.036-.988 1.142-2.383 1.732-3.786 1.732-1.158 0-2.321-.402-3.265-1.213l-8.532-7.365c-.04-.042-.07-.084-.108-.122-.148-.14-.279-.281-.41-.44-.09-.098-.18-.202-.26-.309-.122-.173-.221-.351-.322-.534-.06-.108-.13-.22-.179-.328-.093-.201-.155-.407-.221-.627-.033-.113-.079-.211-.105-.333-.048-.211-.064-.44-.084-.66-.009-.108-.038-.22-.042-.328 0-.014.004-.023.004-.033 0-.019-.006-.028-.006-.037-.001-.253.037-.501.07-.74.012-.084.007-.173.024-.253.064-.337.164-.66.294-.969.016-.047.044-.079.06-.122.121-.267.256-.52.419-.759.062-.089.141-.169.21-.257.137-.183.276-.351.437-.511.022-.023.036-.052.059-.07l9.145-8.611c2.012-1.891 5.176-1.802 7.069.211 1.75 1.859 1.778 4.687.186 6.607 14.461-.838 27.675-2.856 38.085-5.886 14.715-4.28 17.939-8.812 17.939-10.193 0-1.428-3.356-6.078-18.686-10.409-13.965-3.938-32.624-6.111-52.538-6.111-19.913 0-38.571 2.173-52.537 6.111-15.327 4.331-18.683 8.981-18.683 10.409 0 1.213 2.312 4.411 11.057 7.871 8.872 3.503 21.321 6.101 35.995 7.52 2.749.262 4.763 2.711 4.496 5.45-.264 2.748-2.7 4.771-5.456 4.5-13.158-1.269-56.091-6.85-56.091-25.341 0-18.219 42.103-26.521 81.22-26.521 39.12 0 81.223 8.302 81.223 26.521 0 15.813-32.399 24.222-66.328 26.114zm-86.752-119.929v-77.203c0-1.784.955-3.437 2.5-4.331l66.857-38.597c1.547-.894 3.453-.894 5.001 0l66.857 38.597c1.547.894 2.5 2.547 2.5 4.331v77.202c0 1.784-.953 3.437-2.5 4.326l-66.857 38.601c-.774.445-1.637.669-2.5.669s-1.726-.225-2.5-.669l-66.857-38.601c-1.546-.888-2.501-2.541-2.501-4.325zm133.715-68.54-56.856 32.823v65.656l56.856-32.828zm-118.715-8.663 56.857 32.828 56.858-32.828-56.858-32.828zm-4.998 74.314 56.856 32.828v-65.656l-56.856-32.823zm-45.986-71.827v74.89c0 2.762-2.239 5.001-5.001 5.001h-18.733c3.771 8.644 7.441 15.887 10.51 21.927 6.875 13.532 11.417 22.475 7.912 30.398-2.902 6.569-10.709 10.339-21.667 13.616v24.461c0 13.804-11.227 25.032-25.025 25.032h-33.1v28.811c0 2.758-2.239 5-4.999 5h-150.676c-2.762 0-5.001-2.243-5.001-5v-119.083c-8.198-14.885-13.041-31.554-14.153-48.565h-6.003c-2.762 0-5.001-2.238-5.001-5.001v-28.084c0-2.758 2.239-4.996 5.001-4.996h9.78c6.402-23.665 20.341-45.03 39.583-60.491 20.593-16.552 46.514-25.664 72.987-25.664 22.275 0 43.929 6.303 62.621 18.228 17.305 11.036 31.355 26.39 40.812 44.524h35.152c2.762 0 5.001 2.238 5.001 4.996zm-245.761 18.406h157.228c2.37-13.284 13.997-23.403 27.951-23.403h9.017c-19.097-32.734-53.653-52.751-92.021-52.751-47.69 0-88.825 31.012-102.175 76.154zm156.778 28.08v-18.083h-171.954v18.083zm54.368 33.404h-25.967c-13.954 0-25.581-10.119-27.951-23.402h-161.379c1.127 15.728 5.74 31.124 13.484 44.801.425.754.649 1.601.649 2.463v115.383h140.675v-28.812c0-2.758 2.239-5 5.001-5h38.099c8.284 0 15.026-6.738 15.026-15.031v-28.239c0-2.248 1.505-4.219 3.677-4.818 11.362-3.118 17.525-6.082 18.845-9.06 1.584-3.587-2.303-11.238-7.684-21.829-3.595-7.08-7.994-15.743-12.475-26.456zm24.615-74.889h-50.582c-10.146 0-18.402 8.255-18.402 18.402v28.084c0 10.147 8.256 18.402 18.402 18.402h50.582z" fill="url(#SVGID_1_)"/></svg>