<svg enable-background="new 0 0 512 512" viewBox="0 0 512 512" xmlns="http://www.w3.org/2000/svg" xmlns:xlink="http://www.w3.org/1999/xlink"><linearGradient id="SVGID_1_" gradientUnits="userSpaceOnUse" x1="54.279" x2="434.354" y1="442.129" y2="62.054"><stop offset="0" stop-color="#ff506a"/><stop offset="1" stop-color="#ffe28f"/></linearGradient><g id="_x32_3_Gamification"><path d="m89.895 328.988c4.159 0 7.529 3.373 7.529 7.529v15.691h15.554c4.159 0 7.529 3.373 7.529 7.529 0 4.157-3.37 7.529-7.529 7.529h-15.554v15.686c0 4.157-3.37 7.529-7.529 7.529s-7.529-3.373-7.529-7.529v-15.686h-15.555c-4.159 0-7.529-3.373-7.529-7.529 0-4.157 3.37-7.529 7.529-7.529h15.554v-15.691c0-4.156 3.371-7.529 7.53-7.529zm87.707 30.761c0-17.412 14.098-31.574 31.422-31.574s31.422 14.162 31.422 31.574c0 17.383-14.098 31.52-31.422 31.52s-31.422-14.138-31.422-31.52zm15.059 0c0 9.079 7.338 16.461 16.363 16.461s16.363-7.382 16.363-16.461c0-9.108-7.338-16.515-16.363-16.515s-16.363 7.407-16.363 16.515zm311.811-197.556v33.76c0 6.583-5.353 11.941-11.931 11.941h-16.936c-1.25 3.216-2.701 6.378-4.319 9.436l12.358 12.456c4.603 4.642 4.603 12.191.005 16.829l-23.682 23.858c-4.51 4.549-12.417 4.554-16.936-.005l-13.559-13.657c-2.613 1.191-5.284 2.255-7.995 3.181v19.584c0 6.583-5.353 11.941-11.936 11.941h-33.461c-6.578 0-11.931-5.358-11.931-11.941v-19.584c-2.711-.926-5.387-1.99-7.995-3.181l-13.564 13.662c-4.51 4.549-12.417 4.554-16.936-.005l-23.674-23.848c-4.613-4.637-4.613-12.196.005-16.838l12.353-12.451c-1.623-3.064-3.069-6.221-4.324-9.436h-16.932c-6.583 0-11.936-5.358-11.936-11.941v-7.848h-72.128c-4.157 0-7.529-3.373-7.529-7.529v-42.809c0-12.77-10.309-23.162-22.981-23.162s-22.981 10.392-22.981 23.162v136.335h47.75c48.05 0 87.668 40.255 85.069 90.231-2.343 44.893-40.417 81.045-85.109 81.045-.333 0-.662 0-.995-.005-12.172-.147-23.907-2.828-34.873-7.971-12.642-5.931-26.152-6.206-37.084-.804-11.75 5.824-24.392 8.78-37.574 8.78-48.291 0-86.848-40.172-85.131-88.751 1.61-45.505 40.633-82.525 86.991-82.525h45.895v-136.337c0-21.074 17.064-38.221 38.04-38.221s38.04 17.147 38.04 38.221v35.28h64.599v-10.853c0-6.588 5.353-11.946 11.936-11.946h14.353c1.172-4.074 2.642-8.088 4.392-11.971l-9.848-9.922c-4.613-4.637-4.613-12.191.005-16.833l23.672-23.853c4.51-4.549 12.417-4.554 16.936.005l8.466 8.529c4.201-2.255 8.588-4.167 13.088-5.711v-11.927c0-6.583 5.353-11.941 11.931-11.941h33.461c6.583 0 11.936 5.358 11.936 11.941v11.927c4.5 1.544 8.882 3.461 13.088 5.711l8.471-8.534c4.51-4.549 12.417-4.554 16.936.005l23.672 23.853c4.603 4.642 4.603 12.186.005 16.824l-9.853 9.931c1.745 3.873 3.216 7.882 4.392 11.966h14.353c6.582 0 11.935 5.357 11.935 11.946zm-409.898 126.967c-38.341 0-70.616 30.505-71.942 67.996-1.422 40.145 30.407 73.162 70.082 73.162 10.841 0 21.233-2.426 30.888-7.211 14.549-7.211 32.767-7.489 50.162.657 9.01 4.226 18.652 6.427 28.662 6.549.27.005.544.005.819.005 36.79.005 68.138-29.78 70.064-66.77 2.119-40.722-29.951-74.388-70.03-74.388zm394.839-123.855h-13.632c-5.436 0-10.167-3.642-11.51-8.863-1.201-4.672-2.873-9.25-4.961-13.598-2.196-4.588-1.289-10.059 2.26-13.623l9.211-9.28-19.28-19.427-7.956 8.015c-3.775 3.799-9.686 4.583-14.387 1.892-4.569-2.608-9.422-4.73-14.422-6.294-4.976-1.554-8.319-6.074-8.319-11.245v-11.2h-27.211v11.201c0 5.172-3.343 9.691-8.324 11.245-5.005 1.569-9.858 3.686-14.427 6.299-4.691 2.686-10.608 1.912-14.387-1.907l-7.946-8.005-19.28 19.427 9.221 9.289c3.549 3.574 4.446 9.049 2.235 13.628-2.078 4.338-3.745 8.917-4.951 13.588-1.353 5.221-6.083 8.858-11.505 8.858h-13.637v27.53h16.015c4.99 0 9.49 3.186 11.201 7.927 1.402 3.863 3.142 7.652 5.167 11.25 2.623 4.613 1.858 10.471-1.863 14.216l-11.882 11.976 19.28 19.422 12.922-13.015c3.569-3.618 9.083-4.539 13.716-2.27 3.221 1.564 6.603 2.912 10.034 3.99 5.034 1.588 8.412 6.157 8.412 11.373v18.755h27.211v-18.755c0-5.216 3.377-9.784 8.402-11.373 3.441-1.078 6.824-2.426 10.054-3.995 4.598-2.245 10.113-1.338 13.706 2.275l12.922 13.015 19.28-19.422-11.882-11.976c-3.716-3.74-4.48-9.588-1.863-14.221 2.029-3.598 3.765-7.382 5.162-11.25 1.725-4.74 6.226-7.922 11.201-7.922h16.015v-27.53zm-47.73 13.785c0 26.986-21.932 48.942-48.888 48.942-26.932 0-48.844-21.956-48.844-48.942 0-27.015 21.912-48.991 48.844-48.991 26.956 0 48.888 21.976 48.888 48.991zm-15.059 0c0-18.711-15.177-33.932-33.829-33.932-18.628 0-33.785 15.221-33.785 33.932 0 18.682 15.157 33.883 33.785 33.883 18.652 0 33.829-15.202 33.829-33.883z" fill="url(#SVGID_1_)"/></g><g id="Layer_1"/></svg>