<svg id="Layer_1" enable-background="new 0 0 512 512" viewBox="0 0 512 512" xmlns="http://www.w3.org/2000/svg" xmlns:xlink="http://www.w3.org/1999/xlink"><linearGradient id="SVGID_1_" gradientUnits="userSpaceOnUse" x1="49.097" x2="375.558" y1="422.147" y2="95.687"><stop offset="0" stop-color="#fc4422"/><stop offset="1" stop-color="#ffbb32"/></linearGradient><path d="m157.27 397.331c-12.923-7.131-29.171-2.442-36.335 10.458-3.465 6.25-4.261 13.471-2.294 20.33 1.966 6.87 6.508 12.551 12.782 16.001 3.98 2.22 8.429 3.351 12.877 3.351 2.481 0 4.963-.351 7.445-1.061 6.836-1.97 12.549-6.5 16.014-12.75 7.116-12.901 2.434-29.2-10.489-36.329zm1.732 31.488c-2.153 3.911-5.759 6.751-10.02 7.98-4.308 1.24-8.803.73-12.736-1.43-3.933-2.161-6.743-5.719-8.007-10.009-1.218-4.3-.703-8.821 1.452-12.732 2.154-3.908 5.712-6.749 10.02-7.989 1.545-.439 3.09-.66 4.636-.66 2.809 0 5.572.709 8.101 2.1 8.052 4.461 11.003 14.662 6.554 22.74zm266.286-155.02c-5.9-11.6-13.204-25.989-20.462-44.19v-34.669c0-45.04-17.512-87.401-49.305-119.29-31.793-31.88-74.075-49.511-119.119-49.66-1.311 0-2.575.53-3.512 1.459-.983.94-1.498 2.22-1.498 3.542v52.259h-93.132l-6.696-8.71v-12.43c6.556-2.111 11.285-8.26 11.285-15.51 0-8.99-7.304-16.301-16.295-16.301-8.99 0-16.294 7.311-16.294 16.301 0 7.25 4.776 13.4 11.285 15.51v14.129c0 1.101.375 2.171 1.03 3.051l9.224 12c.983 1.229 2.435 1.958 3.979 1.958h95.614v23.161h-126.049c-2.107-6.55-8.241-11.299-15.499-11.299-8.99 0-16.294 7.308-16.294 16.298 0 8.992 7.305 16.301 16.294 16.301 7.258 0 13.392-4.75 15.499-11.3h126.049v23.17h-95.614c-1.545 0-2.996.72-3.979 1.95l-9.224 12.01c-.656.871-1.03 1.94-1.03 3.042v42.039c-6.509 2.12-11.285 8.271-11.285 15.51 0 8.99 7.305 16.301 16.294 16.301 8.991 0 16.295-7.311 16.295-16.301 0-7.24-4.729-13.391-11.285-15.51v-40.34l6.696-8.701h93.132v23.161h-45.279c-1.592 0-3.043.73-3.979 1.959l-9.225 12c-.655.879-1.03 1.949-1.03 3.051v78.028c-6.555 2.111-11.284 8.26-11.284 15.502 0 8.99 7.304 16.309 16.294 16.309 8.943 0 16.295-7.32 16.295-16.309 0-7.241-4.776-13.391-11.332-15.502v-76.328l6.696-8.71h42.844v244.98c0 2.76 2.248 5.001 5.01 5.001h78.055c2.763 0 4.963-2.241 4.963-5.001v-29.98h50.991c18.964 0 34.416-15.441 34.416-34.421v-37.699c19.385-5.64 28.469-11.141 32.027-19.181 4.681-10.619-1.453-22.669-11.566-42.64zm-298.735-220.899c-3.464 0-6.274-2.821-6.274-6.301 0-3.47 2.81-6.299 6.274-6.299 3.465 0 6.321 2.829 6.321 6.299.001 3.481-2.855 6.301-6.321 6.301zm-36.709 74.81c-3.465 0-6.321-2.82-6.321-6.301 0-3.47 2.856-6.299 6.321-6.299s6.321 2.83 6.321 6.299c0 3.481-2.856 6.301-6.321 6.301zm43.031 96.42c0 3.481-2.856 6.299-6.321 6.299-3.464 0-6.274-2.818-6.274-6.299 0-3.469 2.81-6.299 6.274-6.299 3.465 0 6.321 2.829 6.321 6.299zm50.288 69.151c0 3.478-2.809 6.31-6.274 6.31-3.512 0-6.321-2.832-6.321-6.31 0-3.47 2.81-6.301 6.321-6.301 3.465-.001 6.274 2.83 6.274 6.301zm244.512 19.109c-2.294 5.209-11.284 9.72-29.171 14.63-2.201.589-3.699 2.57-3.699 4.82v41.479c0 13.471-10.957 24.421-24.395 24.421h-55.954c-2.762 0-5.01 2.239-5.01 4.999v29.98h-68.035v-396.63c85.031 2.93 153.394 73.16 153.394 158.851v35.63c0 .629.141 1.26.375 1.84 7.539 19.049 15.077 33.95 21.164 45.92 8.522 16.73 14.141 27.779 11.331 34.06zm-228.171 86.329c-.047 0-.14 0-.234 0-.094.011-.141.011-.234.011-3.839 0-7.398-2.021-9.411-5.31-1.967-3.34-2.061-7.551-.188-10.971 3.184-5.69 1.686-12.661-3.465-16.589-2.622-1.981-5.432-3.79-8.334-5.401-2.903-1.598-5.9-3-8.99-4.159-6.087-2.301-12.783.159-15.92 5.86-1.873 3.421-5.479 5.601-9.365 5.67-3.933.029-7.586-1.96-9.599-5.321-3.372-5.549-10.114-7.77-16.107-5.26-6.134 2.57-11.847 6.01-16.95 10.2-5.057 4.121-6.274 11.141-2.903 16.699 2.061 3.351 2.107 7.561.234 10.981-1.873 3.421-5.525 5.59-9.412 5.659-6.508.11-11.799 4.871-12.595 11.311-.843 6.579-.703 13.241.375 19.799 1.03 6.311 6.368 10.83 12.736 10.83.094 0 .187 0 .281-.009 3.933-.101 7.585 1.959 9.599 5.31 2.013 3.34 2.107 7.551.187 10.971-3.137 5.688-1.686 12.659 3.512 16.59 2.623 1.979 5.432 3.799 8.335 5.399 2.856 1.601 5.899 3 8.99 4.161 1.499.58 3.09.86 4.636.86 4.589-.011 8.896-2.46 11.237-6.72 1.92-3.429 5.479-5.6 9.412-5.67 3.886-.05 7.585 1.961 9.599 5.319 3.324 5.552 10.114 7.772 16.061 5.26 6.134-2.57 11.846-6 16.997-10.198 5.01-4.121 6.228-11.141 2.856-16.701-2.013-3.349-2.107-7.559-.188-10.98 1.873-3.429 5.479-5.589 9.412-5.661 6.462-.11 11.8-4.869 12.596-11.309.843-6.581.702-13.24-.375-19.81-1.032-6.311-6.416-10.821-12.785-10.821zm3.231 29.382c-.188 1.48-1.358 2.539-2.856 2.559-7.492.13-14.375 4.271-17.98 10.821-3.652 6.539-3.465 14.59.375 20.99.796 1.281.515 2.841-.608 3.79-4.402 3.59-9.271 6.521-14.516 8.719-1.404.582-2.903.081-3.652-1.2-3.839-6.409-10.91-10.29-18.354-10.158-7.492.139-14.375 4.298-17.98 10.85-.702 1.31-2.201 1.849-3.605 1.33-2.622-1.001-5.197-2.2-7.679-3.57s-4.87-2.921-7.117-4.62c-1.218-.9-1.545-2.451-.796-3.76 3.605-6.539 3.464-14.579-.375-20.99-3.792-6.279-10.629-10.14-17.98-10.14-.094 0-.234 0-.375.011-1.499.04-2.716-.981-2.95-2.46-.937-5.609-1.077-11.3-.328-16.92.188-1.48 1.358-2.541 2.856-2.57 7.445-.121 14.375-4.26 17.98-10.81 3.605-6.541 3.465-14.59-.421-20.99-.749-1.28-.515-2.84.656-3.79 4.354-3.579 9.271-6.521 14.515-8.721 1.358-.569 2.856-.089 3.652 1.191 3.792 6.3 10.629 10.17 17.933 10.17h.421c7.445-.139 14.328-4.3 17.934-10.85.749-1.31 2.248-1.86 3.652-1.33 2.622 1 5.197 2.2 7.679 3.57s4.87 2.92 7.117 4.62c1.17.9 1.499 2.449.796 3.759-3.652 6.54-3.512 14.581.374 20.981 3.84 6.409 10.863 10.27 18.355 10.141h.047c1.499 0 2.669.998 2.903 2.449.936 5.617 1.03 11.307.327 16.928z" fill="url(#SVGID_1_)"/></svg>