<svg id="Layer_1" enable-background="new 0 0 512 512" viewBox="0 0 512 512" xmlns="http://www.w3.org/2000/svg" xmlns:xlink="http://www.w3.org/1999/xlink"><linearGradient id="SVGID_1_" gradientUnits="userSpaceOnUse" x1="63.651" x2="438.794" y1="437.033" y2="61.89"><stop offset="0" stop-color="#fc4422"/><stop offset="1" stop-color="#ffbb32"/></linearGradient><path d="m480.073 144.279c-2.692-1.54-4.364-4.429-4.364-7.52 0-3.1 1.671-5.979 4.364-7.529 5.136-2.95 7.267-9.098 5.08-14.6-2.14-5.342-5.029-10.348-8.611-14.871-3.661-4.649-10.053-5.858-15.161-2.898-2.688 1.55-6.021 1.559-8.7.009s-4.341-4.439-4.341-7.538c.014-5.933-4.237-10.854-10.109-11.692-5.647-.82-11.509-.82-17.151 0-1.765.253-3.381.88-4.776 1.779-4.331-11.879-11.64-22.578-21.351-30.988-13.579-11.753-30.969-18.233-48.959-18.233-41.261 0-74.833 33.572-74.833 74.833 0 16.229 5.263 31.901 14.89 44.787h-255.057c-2.763 0-5 2.243-5 5.001v242.48c0 2.772 2.238 5.001 5 5.001h176.857v45.962h-81.309c-9.238 0-16.758 7.52-16.758 16.767 0 9.252 7.52 16.772 16.758 16.772h196.163c9.247 0 16.767-7.52 16.767-16.772 0-9.248-7.52-16.767-16.767-16.767h-81.315v-45.962h176.862c2.758 0 5.001-2.229 5.001-5.001v-201.149c2.121.22 4.27.337 6.401.337 2.87 0 5.75-.206 8.578-.618 5.872-.838 10.123-5.76 10.109-11.687 0-3.104 1.662-5.993 4.341-7.543 2.678-1.536 6.012-1.536 8.69.009 5.118 2.973 11.5 1.751 15.171-2.889 3.582-4.528 6.48-9.538 8.601-14.88 2.196-5.502.066-11.636-5.071-14.6zm-198.911-39.248c0-35.75 29.077-64.832 64.832-64.832 31.227 0 58.398 22.878 63.821 53.449-.749 1.32-1.84 2.44-3.194 3.221-2.678 1.55-6.007 1.541-8.69-.009-5.118-2.973-11.5-1.751-15.171 2.898-3.577 4.528-6.467 9.529-8.597 14.871-2.201 5.502-.07 11.641 5.066 14.6 2.692 1.55 4.364 4.43 4.364 7.529 0 3.09-1.671 5.979-4.364 7.52-5.136 2.964-7.267 9.098-5.066 14.609 2.13 5.333 5.019 10.343 8.597 14.871.501.632 1.063 1.199 1.653 1.7-.491 3.76-3.713 6.672-7.599 6.672h-61.629c-4.233 0-7.684-3.442-7.684-7.67 0-10.044-3.367-18.931-10.03-26.432-10.517-11.859-16.309-27.128-16.309-42.997zm41.542 353.228c3.727 0 6.766 3.043 6.766 6.771 0 3.732-3.039 6.771-6.766 6.771h-196.162c-3.727 0-6.761-3.039-6.761-6.771 0-3.727 3.034-6.771 6.761-6.771h86.31c2.763 0 5.001-2.238 5.001-5.001v-50.958h13.541v50.958c0 2.763 2.238 5.001 5.001 5.001zm90.547-65.961h-377.261v-232.478h257.73c2.533 4.392 3.783 9.22 3.783 14.642 0 9.739 7.927 17.667 17.681 17.667h61.629c8.508 0 15.639-6.05 17.301-14.066 1.306-.244 2.599-.702 3.816-1.414 2.683-1.545 6.012-1.545 8.69-.009 2.683 1.55 4.341 4.439 4.341 7.543 0 2.636.843 5.066 2.29 7.038zm62.613-237.119c-1.77 4.439-4.181 8.602-7.173 12.38-.557.721-1.508.899-2.309.44-5.759-3.339-12.928-3.352-18.701-.019-5.769 3.338-9.351 9.547-9.336 16.21 0 .918-.632 1.658-1.541 1.789-4.701.67-9.589.67-14.3 0-.913-.131-1.54-.871-1.54-1.789.009-6.663-3.573-12.881-9.341-16.21-2.88-1.662-6.101-2.491-9.332-2.491-3.235 0-6.48.838-9.369 2.51-.791.459-1.737.281-2.308-.44-2.978-3.779-5.389-7.941-7.159-12.38-.351-.862-.033-1.77.768-2.229 5.782-3.32 9.374-9.533 9.374-16.191 0-6.668-3.592-12.881-9.374-16.201-.801-.459-1.119-1.367-.768-2.229 1.77-4.439 4.181-8.597 7.159-12.371.571-.716 1.517-.908 2.308-.449 5.773 3.338 12.933 3.353 18.701.019 5.769-3.329 9.351-9.538 9.341-16.206 0-.922.627-1.653 1.54-1.779 4.711-.684 9.59-.684 14.3 0 .908.126 1.541.857 1.541 1.779-.014 6.668 3.568 12.876 9.336 16.206 5.773 3.334 12.942 3.32 18.701-.019.801-.45 1.751-.267 2.323.449 2.978 3.774 5.389 7.932 7.159 12.371.337.862.019 1.77-.782 2.229-5.778 3.329-9.369 9.533-9.369 16.201 0 6.658 3.592 12.872 9.369 16.191.801.46 1.119 1.368.782 2.229zm-46.21-42.052c-13.031 0-23.632 10.601-23.632 23.632 0 13.021 10.601 23.622 23.632 23.622s23.627-10.601 23.627-23.622c0-13.031-10.596-23.632-23.627-23.632zm0 37.253c-7.51 0-13.63-6.11-13.63-13.621 0-7.52 6.12-13.63 13.63-13.63 7.52 0 13.63 6.11 13.63 13.63 0 7.511-6.111 13.621-13.63 13.621zm-131.982-51.318c2.379-19.272 15.962-35.272 34.588-40.741 2.65-.782 5.432.73 6.213 3.381.777 2.65-.74 5.431-3.39 6.209-14.801 4.35-25.594 17.058-27.495 32.378-.309 2.533-2.458 4.383-4.949 4.383-.211 0-.417-.009-.618-.033-2.738-.338-4.69-2.838-4.349-5.577zm-113.439 144.885-38.002 32.112 38.002 32.111c2.107 1.779 2.379 4.94.59 7.052-.993 1.17-2.402 1.77-3.821 1.77-1.138 0-2.29-.393-3.222-1.18l-42.516-35.932c-1.133-.95-1.784-2.35-1.784-3.821s.651-2.87 1.784-3.821l42.516-35.928c2.112-1.779 5.263-1.508 7.042.599 1.79 2.113 1.518 5.259-.589 7.038zm197.698-39.739c0 2.763-2.238 5-5.001 5h-61.868c-2.772 0-5.001-2.238-5.001-5 0-2.758 2.229-5.001 5.001-5.001h61.868c2.763.001 5.001 2.243 5.001 5.001zm-138.967 19.624-28.68 107.048c-.604 2.229-2.622 3.699-4.832 3.699-.431 0-.862-.052-1.302-.169-2.669-.712-4.252-3.451-3.531-6.12l28.679-107.052c.712-2.66 3.456-4.247 6.12-3.526 2.675.707 4.253 3.461 3.546 6.12zm138.967-2.543c0 2.758-2.238 5.001-5.001 5.001h-61.868c-2.772 0-5.001-2.243-5.001-5.001s2.229-5.001 5.001-5.001h61.868c2.763.001 5.001 2.244 5.001 5.001zm-12.066 17.082c0 2.758-2.243 5.001-5.001 5.001h-37.73c-2.763 0-5.001-2.243-5.001-5.001 0-2.763 2.238-5.001 5.001-5.001h37.73c2.758 0 5.001 2.238 5.001 5.001zm-54.105 37.688c0 1.47-.646 2.87-1.77 3.821l-42.52 35.932c-.937.787-2.089 1.18-3.227 1.18-1.423 0-2.833-.6-3.821-1.77-1.779-2.112-1.522-5.272.59-7.052l37.997-32.111-37.997-32.112c-2.112-1.779-2.369-4.926-.59-7.038 1.779-2.107 4.94-2.378 7.047-.599l42.52 35.928c1.125.951 1.771 2.351 1.771 3.821z" fill="url(#SVGID_1_)"/></svg>